<?xml version="1.0" encoding="UTF-8"?>
<svg version="1.1" xmlns="http://www.w3.org/2000/svg" width="3000" height="3000">
<path d="M0 0 C85.14 0 170.28 0 258 0 C258 84.81 258 169.62 258 257 C555 257 852 257 1158 257 C1158 342.14 1158 427.28 1158 515 C1033.59 515 909.18 515 781 515 C780.67 517.31 780.34 519.62 780 522 C779.44418718 524.03143894 778.83618044 526.04920927 778.1809082 528.05078125 C777.80518173 529.20720123 777.42945526 530.36362122 777.04234314 531.55508423 C776.63262772 532.79503143 776.22291229 534.03497864 775.80078125 535.3125 C775.36957023 536.6301929 774.93875727 537.94801613 774.50831604 539.26596069 C773.35694422 542.78449398 772.19726931 546.30023194 771.03481293 549.81511688 C770.30944764 552.00923292 769.58582871 554.20391829 768.86260986 556.39874268 C761.2782032 579.40381643 753.47871453 602.30722316 745 625 C744.47563354 626.40747498 744.47563354 626.40747498 743.94067383 627.84338379 C733.15664527 656.78323429 721.98849341 685.53708605 710 714 C709.53524261 715.10486755 709.53524261 715.10486755 709.06109619 716.23205566 C694.20528892 751.52588765 678.55253494 786.46926224 662 821 C661.63668579 821.75821045 661.27337158 822.5164209 660.89904785 823.29760742 C645.50666819 855.39221431 629.68037472 887.30632159 612.40966797 918.43798828 C610.88001901 921.21806036 609.37707212 924.01143481 607.87890625 926.80859375 C601.29642354 939.09139124 594.46657856 951.1934621 587.3984375 963.203125 C584.23269617 968.58470672 581.14112997 974.00578035 578.0625 979.4375 C548.58723308 1031.25176117 516.19414826 1081.9523371 481.70898438 1130.58349609 C479.92474155 1133.10641544 478.15587483 1135.63954098 476.390625 1138.17578125 C468.71276457 1149.20443544 460.92050372 1160.14432001 453 1171 C452.44876465 1171.75603516 451.8975293 1172.51207031 451.32958984 1173.29101562 C443.94534356 1183.40362058 436.43764066 1193.41562727 428.82983398 1203.36108398 C424.76695762 1208.67278518 420.74298703 1214.01064398 416.75 1219.375 C411.95109208 1225.8077161 406.98369819 1232.0897592 401.9453125 1238.3359375 C399.03343825 1241.94743038 396.16970521 1245.59520217 393.3125 1249.25 C388.62490409 1255.2362373 383.83591552 1261.13276916 379 1267 C377.49928825 1268.83275076 375.99929362 1270.66608895 374.5 1272.5 C373.75492188 1273.41007812 373.00984375 1274.32015625 372.2421875 1275.2578125 C370.7659514 1277.06324411 369.29193264 1278.87049141 367.8203125 1280.6796875 C360.98395712 1289.07307756 354.00781993 1297.34378356 346.94921875 1305.55078125 C346.44173096 1306.14084961 345.93424316 1306.73091797 345.41137695 1307.33886719 C344.38804621 1308.52855219 343.36444638 1309.7180058 342.34057617 1310.90722656 C339.3322032 1314.41203233 336.3946273 1317.96250324 333.5 1321.5625 C329.15330627 1326.9207879 324.49691092 1331.9502511 319.79296875 1336.9921875 C316.4414539 1340.58702076 313.21111691 1344.27980359 310 1348 C308.68841779 1349.50080257 307.3759259 1351.00081067 306.0625 1352.5 C305.47597656 1353.1703125 304.88945313 1353.840625 304.28515625 1354.53125 C303.86105469 1355.0159375 303.43695312 1355.500625 303 1356 C304.59457411 1359.89066548 307.10280553 1362.35024873 310.05712891 1365.30004883 C310.57126343 1365.8160817 311.08539795 1366.33211456 311.6151123 1366.86378479 C313.31408386 1368.56645657 315.02014488 1370.26182451 316.7265625 1371.95703125 C317.9155974 1373.14487293 319.10426165 1374.33308573 320.29257202 1375.52165222 C322.78620502 1378.01372121 325.28315927 1380.50239707 327.78271484 1382.98852539 C330.96839593 1386.15730013 334.14753914 1389.33253318 337.32439613 1392.51015186 C339.78124805 1394.96673009 342.24071179 1397.42067951 344.70103073 1399.87378502 C345.87285348 1401.04244939 347.0440925 1402.21169941 348.21471024 1403.38157082 C349.86282418 1405.02748604 351.51420937 1406.67005044 353.16650391 1408.31176758 C353.87605728 1409.02200073 353.87605728 1409.02200073 354.59994507 1409.74658203 C357.28695291 1412.40880985 360.05247581 1414.93697991 362.91415405 1417.41117859 C366.84507673 1420.82262527 370.54330131 1424.41477854 374.20703125 1428.109375 C374.87809906 1428.78190308 375.54916687 1429.45443115 376.24057007 1430.14733887 C377.6831823 1431.59372784 379.12463929 1433.04126981 380.56503296 1434.48986816 C382.85059287 1436.78830752 385.13936328 1439.08350709 387.42895508 1441.37792969 C393.11211219 1447.074386 398.78979087 1452.77629259 404.46765137 1458.47802734 C409.2760461 1463.30621756 414.08652743 1468.13231074 418.89974976 1472.95568848 C421.1439828 1475.20635799 423.38515923 1477.46004031 425.6262207 1479.71386719 C427.01498694 1481.1062692 428.4038956 1482.49852918 429.79296875 1483.890625 C430.40618988 1484.50901245 431.01941101 1485.1273999 431.6512146 1485.76452637 C434.67843524 1488.79210968 437.76104382 1491.69908588 441 1494.5 C444.90627893 1497.87798699 448.57184934 1501.44356708 452.20703125 1505.109375 C452.87809906 1505.78190308 453.54916687 1506.45443115 454.24057007 1507.14733887 C455.6831823 1508.59372784 457.12463929 1510.04126981 458.56503296 1511.48986816 C460.85059287 1513.78830752 463.13936328 1516.08350709 465.42895508 1518.37792969 C471.11211219 1524.074386 476.78979087 1529.77629259 482.46765137 1535.47802734 C487.2760461 1540.30621756 492.08652743 1545.13231074 496.89974976 1549.95568848 C499.1439828 1552.20635799 501.38515923 1554.46004031 503.6262207 1556.71386719 C505.01498694 1558.1062692 506.4038956 1559.49852918 507.79296875 1560.890625 C508.40618988 1561.50901245 509.01941101 1562.1273999 509.6512146 1562.76452637 C512.6765522 1565.79022642 515.75705467 1568.69540308 518.9942627 1571.4942627 C522.93522548 1574.90227893 526.63112644 1578.50303431 530.29882812 1582.20117188 C530.97964951 1582.88345352 531.66047089 1583.56573517 532.36192322 1584.26869202 C533.82581604 1585.7363622 535.28855359 1587.20518542 536.75022888 1588.67506409 C539.06939513 1591.00710692 541.39176959 1593.33591268 543.71496582 1595.66394043 C549.48159768 1601.44387326 555.24275234 1607.22925557 561.00408936 1613.01446533 C565.8829451 1617.91311456 570.76388608 1622.80966827 575.64756775 1627.70350647 C577.92503874 1629.98741518 580.19945406 1632.27433646 582.47375488 1634.56140137 C583.88274414 1635.97402632 585.29187578 1637.38650929 586.70117188 1638.79882812 C587.32374374 1639.42656631 587.94631561 1640.0543045 588.5877533 1640.70106506 C592.32591237 1644.43966567 596.18475482 1647.98234895 600.19224453 1651.43104553 C604.74230303 1655.3800501 609.0350407 1659.61220773 613.33959961 1663.82470703 C614.49651024 1664.94964975 615.66139068 1666.06644905 616.83374023 1667.17529297 C618.54537973 1668.79589539 620.22951566 1670.44109568 621.91015625 1672.09375 C622.43706558 1672.5825061 622.96397491 1673.07126221 623.5068512 1673.5748291 C624.94555664 1675.02148438 624.94555664 1675.02148438 627 1678 C626.66039423 1682.75084825 625.50219604 1686.85787068 623.82055664 1691.29321289 C623.36295959 1692.51101944 622.90536255 1693.72882599 622.43389893 1694.98353577 C621.92607575 1696.31327737 621.41815847 1697.64298304 620.91015625 1698.97265625 C620.37724129 1700.38369461 619.84501197 1701.79499208 619.31341553 1703.20652771 C618.17074358 1706.23686641 617.02379667 1709.26553765 615.8734436 1712.29296875 C614.03616582 1717.12875909 612.20876629 1721.96824187 610.38354492 1726.80859375 C610.07487645 1727.62709745 609.76620798 1728.44560116 609.44818592 1729.288908 C608.81920609 1730.95682483 608.19025453 1732.6247523 607.5613308 1734.29269028 C606.60277696 1736.83389822 605.64331523 1739.37476187 604.68367004 1741.91555786 C598.87003445 1757.31304686 593.13334916 1772.73857952 587.41598511 1788.17202759 C584.7346404 1795.41002796 582.04956763 1802.64664488 579.36328125 1809.8828125 C579.09941683 1810.59362032 578.83555241 1811.30442814 578.56369209 1812.03677559 C570.16574516 1834.6551097 561.68020216 1857.24066852 553.19534302 1879.82650757 C549.96968935 1888.41349839 546.75067271 1897.00295831 543.53515625 1905.59375 C542.68361187 1907.86800809 541.83204986 1910.14225957 540.98046875 1912.41650391 C539.78394137 1915.61199265 538.58770783 1918.80758931 537.39257812 1922.00360107 C536.32649288 1924.85432825 535.25910211 1927.70456325 534.19140625 1930.5546875 C533.72300072 1931.80892517 533.72300072 1931.80892517 533.24513245 1933.08850098 C531.11388619 1938.77222762 531.11388619 1938.77222762 530 1941 C525.71767905 1939.34427243 522.85393408 1936.12709167 519.68925858 1932.93256092 C518.73875303 1931.98506751 518.73875303 1931.98506751 517.76904535 1931.01843283 C515.63268762 1928.88638914 513.50358172 1926.74724589 511.37432861 1924.60810852 C509.83433124 1923.06826711 508.29389303 1921.52886649 506.75305057 1919.98987073 C502.50883941 1915.74819915 498.27090727 1911.50030145 494.03393173 1907.25140393 C489.46755751 1902.67436359 484.89541733 1898.1030897 480.32394409 1893.53114319 C472.3986983 1885.60386817 464.4773831 1877.67267927 456.55832672 1869.73922157 C448.24670867 1861.41254781 439.93280971 1853.08816167 431.61592865 1844.76674461 C431.09887091 1844.24940427 430.58181317 1843.73206393 430.04908702 1843.1990466 C427.42307023 1840.57162526 424.7970072 1837.94425015 422.17092285 1835.31689634 C403.55937402 1816.69625369 384.95208907 1798.07135579 366.34765625 1779.44360352 C365.22227307 1778.31681277 364.0968898 1777.19002212 362.97150645 1776.06323155 C362.41391709 1775.50494459 361.85632774 1774.94665764 361.28184174 1774.37145289 C358.46104971 1771.54713222 355.6402555 1768.72281374 352.81945801 1765.89849854 C352.26014461 1765.33848668 351.70083121 1764.77847482 351.12456892 1764.2014929 C338.14199065 1751.20274493 325.1581387 1738.20526953 312.17382812 1725.20825195 C311.61784183 1724.65171954 311.06185553 1724.09518712 310.48902116 1723.52179009 C297.79266982 1710.81299016 285.0957212 1698.10478737 272.39759445 1685.39776134 C271.86369919 1684.86349069 271.32980393 1684.32922003 270.77973002 1683.77875936 C265.97657436 1678.97223697 261.17339455 1674.16573871 256.37008795 1669.35936715 C244.39276962 1657.37440291 232.41693623 1645.38796123 220.44476491 1633.39785528 C212.09898076 1625.03957937 203.75154851 1616.68295287 195.40245631 1608.32798133 C190.8797376 1603.80193009 186.35787357 1599.27503302 181.83821487 1594.7459259 C177.70008696 1590.59916274 173.55965796 1586.45471167 169.41739926 1582.31207492 C167.91986629 1580.81357677 166.42318757 1579.31422433 164.92745486 1577.81392924 C162.89199387 1575.77249851 160.85343772 1573.73420772 158.81410599 1571.69664478 C158.23624029 1571.11558038 157.6583746 1570.53451597 157.06299782 1569.93584356 C153.41333125 1566.29762546 149.62790721 1562.86374371 145.72463684 1559.49892987 C143.79314383 1557.82021555 141.95695227 1556.07192297 140.15625 1554.25390625 C139.55039063 1553.64482422 138.94453125 1553.03574219 138.3203125 1552.40820312 C137.71960937 1551.79912109 137.11890625 1551.19003906 136.5 1550.5625 C135.86835937 1549.92634766 135.23671875 1549.29019531 134.5859375 1548.63476562 C133.05494226 1547.09217194 131.52712333 1545.54642686 130 1544 C126.43131872 1545.51805487 124.14284976 1547.60768246 121.41233134 1550.33927166 C120.488822 1551.25828643 119.56531265 1552.17730119 118.61381817 1553.12416488 C117.5904329 1554.15268178 116.56713897 1555.18128956 115.54392624 1556.2099781 C114.45162694 1557.30079862 113.35888893 1558.39117999 112.26575112 1559.48116022 C109.24589046 1562.49486234 106.23233642 1565.51480407 103.21972108 1568.53574654 C99.94770088 1571.81461722 96.66989882 1575.08769903 93.39281011 1578.36150253 C87.64446805 1584.1056902 81.89986663 1589.85359784 76.15766525 1595.6039238 C67.61914474 1604.15449187 59.07492007 1612.69934268 50.52949521 1621.24300987 C36.15636732 1635.61350701 21.78790784 1649.98866338 7.42208099 1664.36645889 C-6.80686147 1678.60722565 -21.03786136 1692.84593116 -35.27162933 1707.08187485 C-36.15584362 1707.96622661 -37.04005791 1708.85057838 -37.95106657 1709.76172868 C-42.44135002 1714.25268878 -46.93167041 1718.74361195 -51.42200503 1723.2345209 C-83.24692572 1755.06364511 -115.06720523 1786.89740529 -146.88476562 1818.73388672 C-154.5988843 1826.45258867 -162.31301926 1834.17127433 -170.02722168 1841.88989258 C-170.50565039 1842.36859519 -170.98407911 1842.8472978 -171.47700566 1843.34050655 C-193.71360189 1865.58978848 -215.95281476 1887.8364542 -238.19270398 1910.08244447 C-239.63634768 1911.52648429 -241.07999025 1912.97052525 -242.52363259 1914.41456644 C-252.09064311 1923.98421649 -261.65769875 1933.55382144 -271.22478461 1943.12339617 C-290.71494422 1962.61862697 -310.20481735 1982.11414417 -329.69451904 2001.60983276 C-330.59067182 2002.50626012 -331.48682459 2003.40268747 -332.41013351 2004.32627929 C-392.27819467 2064.21274927 -452.13961322 2124.10585909 -512 2184 C-515.60348031 2182.30617396 -517.91673952 2180.3200673 -520.73339844 2177.4777832 C-521.18930359 2177.02056381 -521.64520874 2176.56334442 -522.1149292 2176.0922699 C-523.61773267 2174.58298883 -525.11342665 2173.06685442 -526.609375 2171.55078125 C-527.66015161 2170.49372679 -528.71145 2169.43719079 -529.76324463 2168.38114929 C-532.53287687 2165.59822101 -535.29689748 2162.80979129 -538.05932617 2160.01971436 C-542.46465825 2155.57128318 -546.87657271 2151.12940906 -551.29199982 2146.69099998 C-552.82309235 2145.14980334 -554.35065291 2143.60517189 -555.87786865 2142.06013489 C-556.83479753 2141.09636455 -557.79184337 2140.13271032 -558.74902344 2139.16918945 C-559.57190857 2138.3380513 -560.3947937 2137.50691315 -561.24261475 2136.65058899 C-563.30932659 2134.66392295 -565.38481653 2132.79738452 -567.55999756 2130.9380188 C-573.41374109 2125.85406975 -578.82087125 2120.31048207 -584.29101562 2114.82250977 C-585.51363996 2113.5996029 -586.73648543 2112.3769171 -587.95953369 2111.1544342 C-591.25871759 2107.85553572 -594.55482192 2104.55357607 -597.85035896 2101.25103498 C-601.30253173 2097.79258603 -604.75756057 2094.33699267 -608.21228027 2090.88108826 C-614.7447281 2084.34553965 -621.27462389 2077.80744743 -627.80359411 2071.26842493 C-635.24058929 2063.82022961 -642.68044412 2056.37489352 -650.12053394 2048.92978966 C-665.41686091 2033.6230267 -680.70961455 2018.31269798 -696 2003 C-694.44748262 1999.7366165 -692.79659066 1997.548304 -690.22802734 1994.98510742 C-689.45316986 1994.20717331 -688.67831238 1993.4292392 -687.87997437 1992.62773132 C-687.0404422 1991.79538467 -686.20091003 1990.96303802 -685.3359375 1990.10546875 C-684.46989899 1989.23988846 -683.60386047 1988.37430817 -682.71157837 1987.48249817 C-680.8763264 1985.6502678 -679.03864413 1983.820469 -677.19873047 1981.99291992 C-674.40151101 1979.21383909 -671.6122587 1976.42695851 -668.82421875 1973.63867188 C-667.0369272 1971.85630055 -665.24918107 1970.07438492 -663.4609375 1968.29296875 C-662.21985733 1967.05355782 -662.21985733 1967.05355782 -660.95370483 1965.78910828 C-660.15993439 1965.00171768 -659.36616394 1964.21432709 -658.54833984 1963.40307617 C-657.86154144 1962.72008957 -657.17474304 1962.03710297 -656.46713257 1961.3334198 C-654.40859795 1959.38645291 -652.31464974 1957.52685492 -650.17190552 1955.67488098 C-646.1823527 1952.20369518 -642.42387566 1948.55242422 -638.70117188 1944.79882812 C-638.02035049 1944.11654648 -637.33952911 1943.43426483 -636.63807678 1942.73130798 C-635.17418396 1941.2636378 -633.71144641 1939.79481458 -632.24977112 1938.32493591 C-629.93060487 1935.99289308 -627.60823041 1933.66408732 -625.28503418 1931.33605957 C-620.35386569 1926.39351714 -615.42664087 1921.44705496 -610.5 1916.5 C-604.78665872 1910.76298484 -599.07167277 1905.02762828 -593.35243225 1899.29649353 C-591.07496126 1897.01258482 -588.80054594 1894.72566354 -586.52624512 1892.43859863 C-585.11725586 1891.02597368 -583.70812422 1889.61349071 -582.29882812 1888.20117188 C-581.36497032 1887.25956459 -581.36497032 1887.25956459 -580.4122467 1886.29893494 C-576.72733807 1882.61359106 -572.91131837 1879.151731 -568.96962738 1875.74378204 C-565.78139643 1872.92112638 -562.79034143 1869.91325022 -559.79296875 1866.890625 C-559.12190094 1866.21809692 -558.45083313 1865.54556885 -557.75942993 1864.85266113 C-556.3168177 1863.40627216 -554.87536071 1861.95873019 -553.43496704 1860.51013184 C-551.14940713 1858.21169248 -548.86063672 1855.91649291 -546.57104492 1853.62207031 C-541.71120539 1848.75085823 -536.85531035 1843.87572595 -532 1839 C-526.36926584 1833.34558974 -520.73688564 1827.69283965 -515.10025024 1822.04431152 C-512.8560172 1819.79364201 -510.61484077 1817.53995969 -508.3737793 1815.28613281 C-506.98501306 1813.8937308 -505.5961044 1812.50147082 -504.20703125 1811.109375 C-503.59381012 1810.49098755 -502.98058899 1809.8726001 -502.3487854 1809.23547363 C-499.3234478 1806.20977358 -496.24294533 1803.30459692 -493.0057373 1800.5057373 C-489.06477452 1797.09772107 -485.36887356 1793.49696569 -481.70117188 1789.79882812 C-481.02035049 1789.11654648 -480.33952911 1788.43426483 -479.63807678 1787.73130798 C-478.17418396 1786.2636378 -476.71144641 1784.79481458 -475.24977112 1783.32493591 C-472.93060487 1780.99289308 -470.60823041 1778.66408732 -468.28503418 1776.33605957 C-463.35386569 1771.39351714 -458.42664087 1766.44705496 -453.5 1761.5 C-447.78665872 1755.76298484 -442.07167277 1750.02762828 -436.35243225 1744.29649353 C-434.07496126 1742.01258482 -431.80054594 1739.72566354 -429.52624512 1737.43859863 C-428.11725586 1736.02597368 -426.70812422 1734.61349071 -425.29882812 1733.20117188 C-424.36497032 1732.25956459 -424.36497032 1732.25956459 -423.4122467 1731.29893494 C-419.72733807 1727.61359106 -415.91131837 1724.151731 -411.96962738 1720.74378204 C-408.78139643 1717.92112638 -405.79034143 1714.91325022 -402.79296875 1711.890625 C-402.12190094 1711.21809692 -401.45083313 1710.54556885 -400.75942993 1709.85266113 C-399.3168177 1708.40627216 -397.87536071 1706.95873019 -396.43496704 1705.51013184 C-394.14940713 1703.21169248 -391.86063672 1700.91649291 -389.57104492 1698.62207031 C-384.71120539 1693.75085823 -379.85531035 1688.87572595 -375 1684 C-369.36926584 1678.34558974 -363.73688564 1672.69283965 -358.10025024 1667.04431152 C-355.8560172 1664.79364201 -353.61484077 1662.53995969 -351.3737793 1660.28613281 C-349.98501306 1658.8937308 -348.5961044 1657.50147082 -347.20703125 1656.109375 C-346.59381012 1655.49098755 -345.98058899 1654.8726001 -345.3487854 1654.23547363 C-342.3234478 1651.20977358 -339.24294533 1648.30459692 -336.0057373 1645.5057373 C-332.06477452 1642.09772107 -328.36887356 1638.49696569 -324.70117188 1634.79882812 C-324.02035049 1634.11654648 -323.33952911 1633.43426483 -322.63807678 1632.73130798 C-321.17418396 1631.2636378 -319.71144641 1629.79481458 -318.24977112 1628.32493591 C-315.93060487 1625.99289308 -313.60823041 1623.66408732 -311.28503418 1621.33605957 C-306.35386569 1616.39351714 -301.42664087 1611.44705496 -296.5 1606.5 C-290.78665872 1600.76298484 -285.07167277 1595.02762828 -279.35243225 1589.29649353 C-277.07496126 1587.01258482 -274.80054594 1584.72566354 -272.52624512 1582.43859863 C-271.11725586 1581.02597368 -269.70812422 1579.61349071 -268.29882812 1578.20117188 C-267.67625626 1577.57343369 -267.05368439 1576.9456955 -266.4122467 1576.29893494 C-262.72733807 1572.61359106 -258.91131837 1569.151731 -254.96962738 1565.74378204 C-251.78139643 1562.92112638 -248.79034143 1559.91325022 -245.79296875 1556.890625 C-244.78636703 1555.88183289 -244.78636703 1555.88183289 -243.75942993 1554.85266113 C-242.3168177 1553.40627216 -240.87536071 1551.95873019 -239.43496704 1550.51013184 C-237.14940713 1548.21169248 -234.86063672 1545.91649291 -232.57104492 1543.62207031 C-227.71120539 1538.75085823 -222.85531035 1533.87572595 -218 1529 C-212.36926584 1523.34558974 -206.73688564 1517.69283965 -201.10025024 1512.04431152 C-198.8560172 1509.79364201 -196.61484077 1507.53995969 -194.3737793 1505.28613281 C-192.98501306 1503.8937308 -191.5961044 1502.50147082 -190.20703125 1501.109375 C-189.59381012 1500.49098755 -188.98058899 1499.8726001 -188.3487854 1499.23547363 C-184.68627074 1495.57252019 -180.89026304 1492.13462059 -176.97285461 1488.74700928 C-173.78377389 1485.9230031 -170.79142382 1482.91434173 -167.79296875 1479.890625 C-166.78636703 1478.88183289 -166.78636703 1478.88183289 -165.75942993 1477.85266113 C-164.3168177 1476.40627216 -162.87536071 1474.95873019 -161.43496704 1473.51013184 C-159.14940713 1471.21169248 -156.86063672 1468.91649291 -154.57104492 1466.62207031 C-149.71120539 1461.75085823 -144.85531035 1456.87572595 -140 1452 C-134.36926584 1446.34558974 -128.73688564 1440.69283965 -123.10025024 1435.04431152 C-120.8560172 1432.79364201 -118.61484077 1430.53995969 -116.3737793 1428.28613281 C-114.98501306 1426.8937308 -113.5961044 1425.50147082 -112.20703125 1424.109375 C-111.59381012 1423.49098755 -110.98058899 1422.8726001 -110.3487854 1422.23547363 C-106.65783243 1418.54407848 -102.83383427 1415.07241504 -98.88548279 1411.65865898 C-96.22320792 1409.3166561 -93.73134584 1406.85089234 -91.2265625 1404.34008789 C-90.70845505 1403.82212646 -90.1903476 1403.30416504 -89.65653992 1402.77050781 C-87.976973 1401.09025482 -86.30095718 1399.40650907 -84.625 1397.72265625 C-83.44838076 1396.54416817 -82.27153775 1395.36590347 -81.09448242 1394.18785095 C-78.02139193 1391.11097192 -74.95131845 1388.0311001 -71.88189697 1384.95056152 C-68.73951326 1381.79788427 -65.59423929 1378.64809331 -62.44921875 1375.49804688 C-56.29667193 1369.33482746 -50.14731438 1363.16843835 -44 1357 C-45.33219958 1354.24597456 -46.59750389 1352.14204318 -48.72265625 1349.93359375 C-49.52340576 1349.09030518 -49.52340576 1349.09030518 -50.34033203 1348.22998047 C-50.90864746 1347.63846191 -51.47696289 1347.04694336 -52.0625 1346.4375 C-56.86445265 1341.36107465 -61.38859781 1336.16845475 -65.7578125 1330.7109375 C-68.23907733 1327.71094135 -70.84886537 1324.84868089 -73.5 1322 C-77.73083673 1317.44764009 -81.72275908 1312.75385545 -85.62109375 1307.9140625 C-88.35905516 1304.56017216 -91.17231132 1301.2782033 -94 1298 C-98.24866 1293.06635061 -102.42742918 1288.08668145 -106.53125 1283.03125 C-108.43841775 1280.6895377 -110.35524798 1278.35740313 -112.28125 1276.03125 C-118.23932029 1268.83270078 -124.14741974 1261.60776051 -129.88842773 1254.23461914 C-133.34016194 1249.81052996 -136.87987933 1245.46416349 -140.4375 1241.125 C-145.25223008 1235.2380464 -149.88314501 1229.24173933 -154.41430664 1223.13452148 C-158.16033856 1218.09232707 -162.00012318 1213.13116035 -165.875 1208.1875 C-177.10101809 1193.82921549 -187.73695933 1179.03348243 -198.38232422 1164.24267578 C-200.02209373 1161.9693702 -201.66831309 1159.70087071 -203.31640625 1157.43359375 C-209.3823369 1149.08166539 -215.3512661 1140.67667069 -221.16650391 1132.14819336 C-222.94052906 1129.54782889 -224.7203037 1126.95167427 -226.50927734 1124.36157227 C-232.91911886 1115.08001091 -239.22866159 1105.7352576 -245.47949219 1096.34594727 C-246.99762554 1094.06606589 -248.51822477 1091.78784363 -250.0390625 1089.50976562 C-258.80844018 1076.35896618 -267.45173016 1063.12562872 -275.875 1049.75 C-276.61206177 1048.58041748 -276.61206177 1048.58041748 -277.36401367 1047.38720703 C-298.86410591 1013.21384078 -319.64393592 978.56449852 -339.20361328 943.24121094 C-340.773764 940.4081964 -342.34949681 937.57836808 -343.92750549 934.74972534 C-352.73894007 918.94647388 -361.22742238 903.01188512 -369.49365234 886.91552734 C-371.15671982 883.69666968 -372.85350144 880.49731269 -374.56030273 877.30151367 C-387.66069254 852.73225325 -399.91656049 827.68774324 -411.46191406 802.35400391 C-413.10914947 798.76198485 -414.78220329 795.1828303 -416.4609375 791.60546875 C-417.028923 790.39104207 -417.59671557 789.17652514 -418.16430664 787.96191406 C-419.23776345 785.66648782 -420.31489157 783.37277374 -421.39624023 781.08105469 C-421.87005127 780.06301758 -422.3438623 779.04498047 -422.83203125 777.99609375 C-423.25202393 777.10075928 -423.6720166 776.2054248 -424.10473633 775.28295898 C-425 773 -425 773 -425 770 C-339.86 770 -254.72 770 -167 770 C-163.7 776.27 -160.4 782.54 -157 789 C-148.12503632 805.80119461 -139.15706554 822.52130558 -129.70996094 839.00976562 C-127.85300935 842.25704476 -126.00801299 845.51094684 -124.1640625 848.765625 C-115.34228765 864.31885512 -106.29862374 879.72590637 -97 895 C-96.35562988 896.05928711 -95.71125977 897.11857422 -95.04736328 898.20996094 C-74.38097871 932.12585655 -52.64166292 965.36936814 -30 998 C-29.44441406 998.80115234 -28.88882813 999.60230469 -28.31640625 1000.42773438 C-20.01292119 1012.38364327 -11.57971472 1024.24081894 -3 1036 C-2.44876465 1036.75603516 -1.8975293 1037.51207031 -1.32958984 1038.29101562 C7.94391647 1050.9909314 17.43339816 1063.51987307 27 1076 C27.94925474 1077.24085789 28.89847758 1078.48174017 29.84765625 1079.72265625 C38.45567399 1090.96113257 47.2074936 1102.07302166 56.16333008 1113.03613281 C59.66810441 1117.3342158 63.10134894 1121.6802905 66.5 1126.0625 C70.91473065 1131.73916044 75.55771215 1137.18638184 80.29589844 1142.59472656 C83.52080725 1146.27840901 86.671339 1150.00440016 89.75 1153.8125 C93.28019171 1158.17370399 96.98203456 1162.33521924 100.76171875 1166.48046875 C103.02847158 1169.03204917 105.17540087 1171.65171532 107.3125 1174.3125 C111.26608482 1179.20410582 115.44570349 1183.82942901 119.7512207 1188.40942383 C122.9694482 1191.83978268 126.01903803 1195.36083292 129 1199 C137.43195056 1190.66037006 145.36348294 1181.92815302 152.7890625 1172.6796875 C155.1093495 1169.86746685 157.53071134 1167.18202737 160 1164.5 C164.03954818 1160.10621452 167.84679619 1155.58161176 171.59375 1150.9375 C174.29779161 1147.63646219 177.08122857 1144.41245299 179.875 1141.1875 C184.30847818 1136.05429357 188.5620869 1130.81403187 192.71875 1125.45507812 C196.34809118 1120.7895188 200.09647929 1116.23270712 203.875 1111.6875 C209.67111862 1104.69773778 215.23223455 1097.55738985 220.71484375 1090.3203125 C224.1211763 1085.82563263 227.58996761 1081.38110382 231.0625 1076.9375 C241.46248946 1063.59673508 251.49420063 1050.01044758 261.36328125 1036.2734375 C262.97652508 1034.03260717 264.59637192 1031.79672383 266.21875 1029.5625 C279.33500149 1011.49314868 292.02681504 993.14320062 304.5 974.625 C305.13308075 973.68599854 305.7661615 972.74699707 306.41842651 971.77954102 C314.99765366 959.04784399 323.49141679 946.28171452 331.59960938 933.24316406 C333.01648356 930.97359641 334.45062975 928.71589642 335.890625 926.4609375 C349.80951712 904.64232257 363.07581356 882.41972218 376 860 C376.6379248 858.89688477 377.27584961 857.79376953 377.93310547 856.65722656 C386.42656267 841.95900554 394.69446694 827.16584849 402.6875 812.1875 C405.33274484 807.23075617 408.02351981 802.30100429 410.73388672 797.37963867 C415.4699563 788.77463495 420.01930842 780.10638381 424.36572266 771.2980957 C426.65378278 766.66693464 428.99993873 762.07865095 431.43969727 757.52563477 C444.12097332 733.84782479 455.35191578 709.39987804 466.34603882 684.90356445 C468.2807408 680.59280598 470.23253592 676.29026514 472.1953125 671.9921875 C492.91424275 626.4683099 511.34738419 579.8926944 528.3190918 532.85302734 C528.76112946 531.62958366 528.76112946 531.62958366 529.21209717 530.38142395 C529.75438151 528.87835323 530.29472381 527.37457958 530.83258057 525.86991882 C531.07530701 525.19620743 531.31803345 524.52249603 531.56811523 523.82836914 C531.87639503 522.9672628 531.87639503 522.9672628 532.19090271 522.08876038 C533.37807785 519.02395664 534.70134767 516.01894058 536 513 C534.75439709 513.00015598 533.50879418 513.00031196 532.22544572 513.00047267 C489.57941501 513.0058054 446.93338427 513.01091601 404.28735352 513.01586914 C403.42827293 513.01596894 402.56919235 513.01606874 401.68407902 513.01617156 C309.66169552 513.02685547 217.63931201 513.03607947 125.6169281 513.04234314 C123.5736601 513.04248259 121.53039211 513.04262204 119.48712411 513.04276149 C76.60163272 513.04568396 33.71614132 513.0484007 -9.16935009 513.05087968 C-30.71105178 513.05212511 -52.25275346 513.05341008 -73.79445514 513.05473244 C-77.04400924 513.05493169 -80.29356335 513.05512981 -83.54311745 513.05532788 C-133.60202803 513.0583891 -183.66093836 513.06230025 -233.71984863 513.06866455 C-235.33522373 513.0688699 -235.33522373 513.0688699 -236.98323266 513.0690794 C-254.34713644 513.07129186 -271.71104021 513.07357543 -289.07494398 513.07586844 C-339.06743167 513.08246916 -389.05991918 513.08854707 -439.05240726 513.09113979 C-440.07971852 513.09119333 -441.10702977 513.09124686 -442.16547167 513.09130202 C-464.71343618 513.09246758 -487.26140069 513.09336253 -509.80936521 513.09400098 C-518.88089113 513.09426262 -527.95241704 513.09456324 -537.02394295 513.09487724 C-538.01680314 513.09491067 -539.00966332 513.0949441 -540.03261019 513.09497854 C-572.06181171 513.0960763 -604.09101185 513.10035182 -636.12021282 513.10628221 C-668.36495382 513.11223804 -700.60969347 513.11510171 -732.85443504 513.11362399 C-737.30323033 513.11342089 -741.75202563 513.11325351 -746.20082092 513.11310768 C-747.07296521 513.1130778 -747.94510949 513.11304792 -748.84368239 513.11301713 C-762.69263533 513.11263544 -776.54158545 513.11563003 -790.39053762 513.12000986 C-803.98510054 513.12424064 -817.57965976 513.12495063 -831.17422302 513.12183181 C-839.15946 513.12010825 -847.1446853 513.12116915 -855.12992093 513.126217 C-861.0352242 513.12964964 -866.9405183 513.12795147 -872.84582162 513.12413998 C-875.23700319 513.1234186 -877.62818598 513.12441737 -880.01936601 513.12723524 C-883.23777869 513.13079109 -886.45612893 513.12832105 -889.67453951 513.1241985 C-891.08981888 513.12796181 -891.08981888 513.12796181 -892.53368975 513.13180115 C-898.88584499 513.11415501 -898.88584499 513.11415501 -900 512 C-900 427.85 -900 343.7 -900 257 C-603 257 -306 257 0 257 C0 172.19 0 87.38 0 0 Z " fill="#000000" transform="translate(985,215)"/>
<path d="M0 0 C85.14 0 170.28 0 258 0 C263.62523719 13.50056926 263.62523719 13.50056926 265.52587891 18.55371094 C265.95998581 19.70475815 266.39409271 20.85580536 266.84135437 22.04173279 C267.29847305 23.26030472 267.75559174 24.47887665 268.2265625 25.734375 C268.72755319 27.06529686 269.22872339 28.39615116 269.73005676 29.72694397 C271.08142915 33.31586301 272.43012652 36.90578175 273.77827072 40.49591446 C274.92543634 43.54979425 276.07418783 46.60307646 277.22294521 49.65635777 C281.15315185 60.10254112 285.07738829 70.55096273 289 81 C289.28764473 81.76617897 289.57528946 82.53235794 289.8716507 83.32175446 C296.89145256 102.02011675 303.90366943 120.721319 310.91217041 139.42391968 C314.85805657 149.95369591 318.80539392 160.48292702 322.75390625 171.01171875 C323.17138783 172.12494475 323.17138783 172.12494475 323.59730339 173.26066017 C325.00268371 177.0081217 326.40808964 180.75557363 327.81350708 184.50302124 C330.34454578 191.2518967 332.87535727 198.00085737 335.40618706 204.74981117 C336.81244884 208.49987756 338.21872515 212.24993851 339.625 216 C340.18750007 217.49999997 340.75000007 218.99999997 341.3125 220.5 C341.73015625 221.61375 341.73015625 221.61375 342.15625 222.75 C344.68749944 229.49999851 344.68749944 229.49999851 345.53125095 231.75000286 C346.0937475 233.24999343 346.65624432 234.74998389 347.21874142 236.24997425 C348.6250466 240.00011771 350.03134695 243.75026298 351.43763733 247.50041199 C353.96822315 254.2487009 356.49884271 260.99697715 359.02964497 267.7451849 C360.43515202 271.49287463 361.84063044 275.24057511 363.24609375 278.98828125 C363.52440977 279.73041681 363.80272579 280.47255238 364.08947563 281.2371769 C368.03996636 291.77141684 371.98884276 302.30626081 375.93674088 312.84147263 C378.47829825 319.62361756 381.02026488 326.40560909 383.5625 333.1875 C383.98144028 334.30510208 383.98144028 334.30510208 384.40884399 335.44528198 C392.91608652 358.1389337 401.44873944 380.82290098 410 403.5 C421.67476037 434.46031225 433.30096681 465.43868058 444.91183472 496.42300415 C448.85782176 506.95308968 452.80527979 517.48262268 456.75390625 528.01171875 C457.17138783 529.12494475 457.17138783 529.12494475 457.59730339 530.26066017 C459.00268371 534.0081217 460.40808964 537.75557363 461.81350708 541.50302124 C464.34454578 548.2518967 466.87535727 555.00085737 469.40618706 561.74981117 C470.81244884 565.49987756 472.21872515 569.24993851 473.625 573 C474.18750007 574.49999997 474.75000007 575.99999997 475.3125 577.5 C475.5909375 578.2425 475.869375 578.985 476.15625 579.75 C478.68749991 586.49999977 478.68749991 586.49999977 479.53125095 588.75000286 C480.0937475 590.24999343 480.65624432 591.74998389 481.21874142 593.24997425 C482.6250466 597.00011771 484.03134695 600.75026298 485.43763733 604.50041199 C487.96822315 611.2487009 490.49884271 617.99697715 493.02964497 624.7451849 C494.43515202 628.49287463 495.84063044 632.24057511 497.24609375 635.98828125 C497.52440977 636.73041681 497.80272579 637.47255238 498.08947563 638.2371769 C502.03996636 648.77141684 505.98884276 659.30626081 509.93674088 669.84147263 C512.47829825 676.62361756 515.02026488 683.40560909 517.5625 690.1875 C517.84179352 690.93256805 518.12108704 691.67763611 518.40884399 692.44528198 C526.91608652 715.1389337 535.44873944 737.82290098 544 760.5 C555.67476037 791.46031225 567.30096681 822.43868058 578.91183472 853.42300415 C582.85782176 863.95308968 586.80527979 874.48262268 590.75390625 885.01171875 C591.17138783 886.12494475 591.17138783 886.12494475 591.59730339 887.26066017 C593.00268371 891.0081217 594.40808964 894.75557363 595.81350708 898.50302124 C598.34454578 905.2518967 600.87535727 912.00085737 603.40618706 918.74981117 C604.81244884 922.49987756 606.21872515 926.24993851 607.625 930 C608.18750007 931.49999997 608.75000007 932.99999997 609.3125 934.5 C609.5909375 935.2425 609.869375 935.985 610.15625 936.75 C612.68749946 943.49999856 612.68749946 943.49999856 613.53125095 945.75000286 C614.0937475 947.24999343 614.65624432 948.74998389 615.21874142 950.24997425 C616.6250466 954.00011771 618.03134695 957.75026298 619.43763733 961.50041199 C621.96822315 968.2487009 624.49884271 974.99697715 627.02964497 981.7451849 C628.43515202 985.49287463 629.84063044 989.24057511 631.24609375 992.98828125 C631.52440977 993.73041681 631.80272579 994.47255238 632.08947563 995.2371769 C636.03996636 1005.77141684 639.98884276 1016.30626081 643.93674088 1026.84147263 C646.47829825 1033.62361756 649.02026488 1040.40560909 651.5625 1047.1875 C651.84179352 1047.93256805 652.12108704 1048.67763611 652.40884399 1049.44528198 C660.91608652 1072.1389337 669.44873944 1094.82290098 678 1117.5 C689.67476037 1148.46031225 701.30096681 1179.43868058 712.91183472 1210.42300415 C716.85782176 1220.95308968 720.80527979 1231.48262268 724.75390625 1242.01171875 C725.03222731 1242.75386942 725.31054836 1243.49602009 725.59730339 1244.26066017 C727.00268371 1248.0081217 728.40808964 1251.75557363 729.81350708 1255.50302124 C732.34454578 1262.2518967 734.87535727 1269.00085737 737.40618706 1275.74981117 C738.81244884 1279.49987756 740.21872515 1283.24993851 741.625 1287 C742.18750007 1288.49999997 742.75000007 1289.99999997 743.3125 1291.5 C743.5909375 1292.2425 743.869375 1292.985 744.15625 1293.75 C746.68750029 1300.50000077 746.68750029 1300.50000077 747.53125095 1302.75000286 C748.0937475 1304.24999343 748.65624432 1305.74998389 749.21874142 1307.24997425 C750.6250466 1311.00011771 752.03134695 1314.75026298 753.43763733 1318.50041199 C755.96822315 1325.2487009 758.49884271 1331.99697715 761.02964497 1338.7451849 C762.43515202 1342.49287463 763.84063044 1346.24057511 765.24609375 1349.98828125 C765.52440977 1350.73041681 765.80272579 1351.47255238 766.08947563 1352.2371769 C770.03987417 1362.77117103 773.98865934 1373.30576883 777.93646622 1383.84073448 C789.32434971 1414.22936754 800.72575195 1444.6128266 812.16852951 1474.98083878 C812.98059279 1477.1359947 813.7925616 1479.29118619 814.60452271 1481.44638062 C815.88377064 1484.8417517 817.16367698 1488.2368742 818.44374275 1491.63193703 C819.17841003 1493.58134886 819.91219486 1495.53109109 820.64585876 1497.48088074 C822.87414027 1503.39814251 825.1140728 1509.31035671 827.39082336 1515.20916653 C828.43191365 1517.90691055 829.46859289 1520.60634168 830.50527954 1523.30578041 C831.23197518 1525.19150802 831.96587352 1527.07445495 832.69995117 1528.95732117 C833.13412354 1530.08813614 833.5682959 1531.21895111 834.015625 1532.3840332 C834.59231934 1533.87130669 834.59231934 1533.87130669 835.18066406 1535.3886261 C836 1538 836 1538 836 1542 C750.86 1542 665.72 1542 578 1542 C548.60213695 1463.98259421 548.60213695 1463.98259421 539.25610352 1439.01919556 C536.74537831 1432.31423377 534.23216847 1425.61020256 531.71875 1418.90625 C531.29843506 1417.78513573 531.29843506 1417.78513573 530.86962891 1416.64137268 C524.86775574 1400.63424416 518.83974756 1384.63699967 512.80751419 1368.64129257 C503.70293313 1344.49859387 494.61950867 1320.34808772 485.5625 1296.1875 C485.28556305 1295.44876522 485.0086261 1294.71003044 484.72329712 1293.94890976 C480.7742694 1283.41468585 476.82641579 1272.88002207 472.87882233 1262.34526062 C468.63297999 1251.01463493 464.3868138 1239.68413079 460.13945484 1228.35407352 C458.42698187 1223.78586446 456.71503747 1219.21745785 455.00355625 1214.64887714 C453.93885882 1211.80713037 452.87372108 1208.9655488 451.80842781 1206.12402534 C451.29404895 1204.75183881 450.77980916 1203.37960014 450.26571465 1202.00730705 C447.45810494 1194.51385566 444.63419898 1187.02707444 441.77734375 1179.55224609 C441.25777096 1178.19085217 440.73819901 1176.82945793 440.21862793 1175.46806335 C439.24109505 1172.90733926 438.25911904 1170.34837992 437.27453613 1167.7903595 C436.84298218 1166.66095444 436.41142822 1165.53154938 435.96679688 1164.36791992 C435.58551636 1163.37547775 435.20423584 1162.38303558 434.81140137 1161.36051941 C434 1159 434 1159 434 1157 C232.7 1157 31.4 1157 -176 1157 C-177.485 1161.95 -177.485 1161.95 -179 1167 C-179.78665508 1169.25228365 -180.59749045 1171.49634611 -181.43823242 1173.72900391 C-181.66400687 1174.33136022 -181.88978132 1174.93371653 -182.12239742 1175.55432606 C-182.86364023 1177.52959152 -183.60953037 1179.50306604 -184.35546875 1181.4765625 C-184.89058515 1182.89979623 -185.42539762 1184.32314427 -185.95993042 1185.74659729 C-187.39860753 1189.57540063 -188.84126342 1193.40269347 -190.28462601 1197.22973251 C-191.8119189 1201.28154378 -193.33539648 1205.33478892 -194.85913086 1209.38793945 C-197.05128103 1215.21827569 -199.24446123 1221.04822225 -201.43900013 1226.8776598 C-205.03773511 1236.4375515 -208.62791766 1246.00061427 -212.2109375 1255.56640625 C-212.45531429 1256.21878014 -212.69969109 1256.87115402 -212.95147324 1257.54329681 C-213.92842258 1260.15130725 -214.90534226 1262.7593288 -215.88220787 1265.36737061 C-225.10047987 1289.97752216 -234.35617058 1314.57345784 -243.62824249 1339.16338348 C-252.25340806 1362.03816375 -260.8560806 1384.92127241 -269.4375 1407.8125 C-269.99580735 1409.30169737 -270.55411627 1410.79089414 -271.11242676 1412.28009033 C-276.60320938 1426.92623322 -282.09146913 1441.57332049 -287.5772047 1456.22135448 C-290.0216002 1462.74827067 -292.46675613 1469.27490171 -294.91235828 1475.80136585 C-296.63500261 1480.39870477 -298.3566451 1484.99641698 -300.0774231 1489.59445477 C-301.15328184 1492.46848542 -302.23012079 1495.34214818 -303.30718613 1498.21572685 C-304.01880468 1500.11513249 -304.72930632 1502.01495648 -305.43972778 1503.91481018 C-310.21228901 1516.6421521 -315.11982199 1529.31153717 -320 1542 C-405.47 1542 -490.94 1542 -579 1542 C-566.36852226 1507.55051525 -566.36852226 1507.55051525 -561.96875 1495.8515625 C-561.45354699 1494.47893534 -560.93845009 1493.10626834 -560.42344666 1491.73356628 C-559.06521024 1488.11408105 -557.70563994 1484.49509839 -556.3457756 1480.87622452 C-554.88340683 1476.98379675 -553.42234453 1473.09087862 -551.96118164 1469.19799805 C-550.13314444 1464.32786495 -548.30501142 1459.45776796 -546.47633362 1454.58787537 C-542.36427206 1443.63692802 -538.25673815 1432.68429187 -534.15234375 1421.73046875 C-522.86008979 1391.59556392 -511.54670341 1361.46881652 -500.19203949 1331.35736847 C-491.62664321 1308.6423888 -483.08359858 1285.91913509 -474.5625 1263.1875 C-474.14355972 1262.06989792 -474.14355972 1262.06989792 -473.71615601 1260.92971802 C-471.17315585 1254.14560343 -468.63049526 1247.36136161 -466.08816528 1240.57699585 C-462.14217824 1230.04691032 -458.19472021 1219.51737732 -454.24609375 1208.98828125 C-453.96777269 1208.24613058 -453.68945164 1207.50397991 -453.40269661 1206.73933983 C-451.99731629 1202.9918783 -450.59191036 1199.24442637 -449.18649292 1195.49697876 C-446.65545422 1188.7481033 -444.12464273 1181.99914263 -441.59381294 1175.25018883 C-440.18755116 1171.50012244 -438.78127485 1167.75006149 -437.375 1164 C-436.81249993 1162.50000003 -436.24999993 1161.00000003 -435.6875 1159.5 C-434.5625 1156.5 -433.4375 1153.5 -432.3125 1150.5 C-432.03406219 1149.75749906 -431.75562437 1149.01499811 -431.46874905 1148.24999714 C-430.9062525 1146.75000657 -430.34375568 1145.25001611 -429.78125858 1143.75002575 C-428.3749534 1139.99988229 -426.96865305 1136.24973702 -425.56236267 1132.49958801 C-423.03177685 1125.7512991 -420.50115729 1119.00302285 -417.97035503 1112.2548151 C-416.56484798 1108.50712537 -415.15936956 1104.75942489 -413.75390625 1101.01171875 C-413.33643222 1099.89851541 -413.33643222 1099.89851541 -412.91052437 1098.7628231 C-408.96003364 1088.22858316 -405.01115724 1077.69373919 -401.06325912 1067.15852737 C-389.4671625 1036.21434767 -377.85170675 1005.27765528 -366.19203949 974.35736847 C-357.62664321 951.6423888 -349.08359858 928.91913509 -340.5625 906.1875 C-340.28320648 905.44243195 -340.00391296 904.69736389 -339.71615601 903.92971802 C-337.17315585 897.14560343 -334.63049526 890.36136161 -332.08816528 883.57699585 C-328.14217824 873.04691032 -324.19472021 862.51737732 -320.24609375 851.98828125 C-319.96777269 851.24613058 -319.68945164 850.50397991 -319.40269661 849.73933983 C-317.99731629 845.9918783 -316.59191036 842.24442637 -315.18649292 838.49697876 C-312.65545422 831.7481033 -310.12464273 824.99914263 -307.59381294 818.25018883 C-306.18755116 814.50012244 -304.78127485 810.75006149 -303.375 807 C-302.81249993 805.50000003 -302.24999993 804.00000003 -301.6875 802.5 C-300.5625 799.5 -299.4375 796.5 -298.3125 793.5 C-298.03406219 792.75749906 -297.75562437 792.01499811 -297.46874905 791.24999714 C-296.9062525 789.75000657 -296.34375568 788.25001611 -295.78125858 786.75002575 C-294.3749534 782.99988229 -292.96865305 779.24973702 -291.56236267 775.49958801 C-289.03177685 768.7512991 -286.50115729 762.00302285 -283.97035503 755.2548151 C-282.56484798 751.50712537 -281.15936956 747.75942489 -279.75390625 744.01171875 C-279.47559023 743.26958319 -279.19727421 742.52744762 -278.91052437 741.7628231 C-274.96003364 731.22858316 -271.01115724 720.69373919 -267.06325912 710.15852737 C-255.4671625 679.21434767 -243.85170675 648.27765528 -232.19203949 617.35736847 C-223.62664321 594.6423888 -215.08359858 571.91913509 -206.5625 549.1875 C-206.28320648 548.44243195 -206.00391296 547.69736389 -205.71615601 546.92971802 C-203.17315585 540.14560343 -200.63049526 533.36136161 -198.08816528 526.57699585 C-194.14217824 516.04691032 -190.19472021 505.51737732 -186.24609375 494.98828125 C-185.96777269 494.24613058 -185.68945164 493.50397991 -185.40269661 492.73933983 C-183.99731629 488.9918783 -182.59191036 485.24442637 -181.18649292 481.49697876 C-178.65545422 474.7481033 -176.12464273 467.99914263 -173.59381294 461.25018883 C-172.18755116 457.50012244 -170.78127485 453.75006149 -169.375 450 C-168.81249993 448.50000003 -168.24999993 447.00000003 -167.6875 445.5 C-166.5625 442.5 -165.4375 439.5 -164.3125 436.5 C-164.03406219 435.75749906 -163.75562437 435.01499811 -163.46874905 434.24999714 C-162.9062525 432.75000657 -162.34375568 431.25001611 -161.78125858 429.75002575 C-160.3749534 425.99988229 -158.96865305 422.24973702 -157.56236267 418.49958801 C-155.03177685 411.7512991 -152.50115729 405.00302285 -149.97035503 398.2548151 C-148.56484798 394.50712537 -147.15936956 390.75942489 -145.75390625 387.01171875 C-145.47559023 386.26958319 -145.19727421 385.52744762 -144.91052437 384.7628231 C-140.96003364 374.22858316 -137.01115724 363.69373919 -133.06325912 353.15852737 C-121.4671625 322.21434767 -109.85170675 291.27765528 -98.19203949 260.35736847 C-89.62664321 237.6423888 -81.08359858 214.91913509 -72.5625 192.1875 C-72.28320648 191.44243195 -72.00391296 190.69736389 -71.71615601 189.92971802 C-69.17315585 183.14560343 -66.63049526 176.36136161 -64.08816528 169.57699585 C-60.14217824 159.0469103 -56.19468491 148.51739057 -52.24609375 137.98828125 C-51.68283576 136.4862824 -51.1195779 134.9842835 -50.55632019 133.48228455 C-48.03930564 126.77045699 -45.52208647 120.05870629 -43.00434399 113.34715176 C-41.614774 109.64293078 -40.22532602 105.93866405 -38.8359375 102.234375 C-38.56016687 101.49914675 -38.28439625 100.7639185 -38.00026894 100.0064106 C-34.11975294 89.65996054 -30.24477361 79.31144979 -26.37347412 68.96154785 C-24.1934442 63.13332068 -22.01197154 57.30563382 -19.83018112 51.47806549 C-18.05556604 46.73765442 -16.2828644 41.99653383 -14.51163673 37.25485611 C-13.41529018 34.32130949 -12.31707426 31.38846523 -11.21836472 28.45580292 C-10.71391401 27.10818315 -10.21021926 25.76028009 -9.70738602 24.41205597 C-9.01290583 22.55029025 -8.31533417 20.68967865 -7.61767578 18.82910156 C-7.23056427 17.79384338 -6.84345276 16.75858521 -6.4446106 15.69195557 C-4.38416187 10.42611771 -2.17484602 5.21963045 0 0 Z M128 346 C127.56059082 347.18360107 127.12118164 348.36720215 126.66845703 349.58666992 C116.68092864 376.47967967 106.62504079 403.34601844 96.5 430.1875 C87.49765554 454.05384308 78.51532515 477.92753379 69.5625 501.8125 C69.28374023 502.55616695 69.00498047 503.29983391 68.71777344 504.06603622 C66.1742261 510.85168511 63.63094407 517.6374334 61.08804321 524.42332458 C57.14209983 534.95330442 53.19468008 545.4827297 49.24609375 556.01171875 C48.82861217 557.12494475 48.82861217 557.12494475 48.40269661 558.26066017 C46.99731629 562.0081217 45.59191036 565.75557363 44.18649292 569.50302124 C41.65545422 576.2518967 39.12464273 583.00085737 36.59381294 589.74981117 C35.18755116 593.49987756 33.78127485 597.24993851 32.375 601 C31.81249993 602.49999997 31.24999993 603.99999997 30.6875 605.5 C-26.68750001 758.50000002 -26.68750001 758.50000002 -27.53127575 760.75006771 C-28.09369075 762.24984169 -28.65610492 763.74961599 -29.21851826 765.2493906 C-30.62606181 769.00285123 -32.03361996 772.75630638 -33.44120789 776.50975037 C-35.95702636 783.21842083 -38.47275185 789.92712607 -40.98791409 796.63604259 C-42.37337944 800.33160811 -43.75893269 804.02714067 -45.14453125 807.72265625 C-45.5572676 808.82346873 -45.5572676 808.82346873 -45.97834206 809.94651985 C-49.9003589 820.40643828 -53.82659943 830.86476435 -57.75546265 841.32211304 C-59.98072025 847.24507408 -62.20492279 853.16843116 -64.42888451 859.09187889 C-66.25095839 863.94460696 -68.07446487 868.79679355 -69.8990202 873.64858913 C-71.01904909 876.62795593 -72.13772885 879.60782789 -73.2560215 882.58784676 C-73.77718495 883.97577554 -74.29892481 885.36348803 -74.82126427 886.75097466 C-75.53232582 888.63997868 -76.24120436 890.52980401 -76.94995117 892.41967773 C-77.34816574 893.47936264 -77.74638031 894.53904755 -78.15666199 895.63084412 C-79.0558921 897.73788544 -79.0558921 897.73788544 -79 899 C58.28 899 195.56 899 337 899 C332.87980247 887.22800706 328.7581098 875.49247889 324.359375 863.828125 C323.83840235 862.44137978 323.31763708 861.05455663 322.79705811 859.66766357 C321.69224831 856.72554682 320.58608218 853.78394543 319.47875977 850.84277344 C317.70167731 846.1225937 315.92777512 841.4012224 314.15429688 836.6796875 C311.9821065 830.89722857 309.80922372 825.11503084 307.63540649 819.33318329 C303.80925368 809.15627771 299.98868932 798.97728637 296.171875 788.796875 C295.89576637 788.06043007 295.61965775 787.32398514 295.33518219 786.56522369 C293.94582321 782.85939137 292.55656729 779.15352043 291.1673584 775.44763184 C288.64383063 768.71595813 286.11937911 761.98463082 283.59500885 755.25327301 C282.1883025 751.50219578 280.78165415 747.75109681 279.375 744 C278.81250028 742.4999999 278.25000028 740.9999999 277.6875 739.5 C247.24823011 658.32861363 247.24823011 658.32861363 246.3654604 655.97456074 C245.77482283 654.39952745 245.18418499 652.82449426 244.59354687 651.24946117 C243.11953272 647.31876047 241.64552333 643.38805797 240.17152405 639.45735168 C237.56370759 632.50311497 234.95585997 625.54888994 232.34782505 618.59473515 C230.95061117 614.86915467 229.55342324 611.14356447 228.15625 607.41796875 C227.75153882 606.33879968 227.75153882 606.33879968 227.33865166 605.23782921 C223.96379253 596.23856336 220.59034827 587.23876942 217.21875 578.23828125 C208.4185549 554.74897979 199.58320582 531.27307411 190.73387146 507.80225372 C179.06975572 476.86515755 167.45443959 445.90987543 155.8527832 414.9493103 C152.11412964 404.97221582 148.37407834 394.99564646 144.6328125 385.01953125 C144.25611766 384.01506989 144.25611766 384.01506989 143.87181282 382.99031639 C142.65240844 379.73878517 141.43297773 376.48726382 140.21353149 373.23574829 C138.02372903 367.39679975 135.83413347 361.55777363 133.64453125 355.71875 C132.92944442 353.81184856 132.21435665 351.90494747 131.49926758 349.99804688 C130.99951172 348.66536458 130.49975586 347.33268229 130 346 C129.34 346 128.68 346 128 346 Z " fill="#000000" transform="translate(2078,1242)"/>
</svg>
